<svg width="177" height="52" fill="none" xmlns="http://www.w3.org/2000/svg"><path d="M7.8 23.38l2.64-1.3 4.2-6.29 1.28-.52 1.37 6.37-1.8.26-1.36-2.62-1.03 4.1h4.54l4.7 1.22 1.89-1.22 3.17 3.32 1.37-6.1 2.22 2.26 1.37-1.92 2.23-.61 3.25-3.05.51-1.49 2.66.44 1.11 1.48-1.97 4.19 4.88-2.53v-1.22l1.89-.44 2.05 2.1 2.05-2.53v-1.75l3.34-2.36 1.37-2h2.14l3.77-7.77L64.9 0l1.2 1.92-1.88 2.44.68 1.57 1.8.35 1.46 6.46v5.4l2.57 3.58L72 26.7l-4.45-2.88-1.97-8.29-1.2.26-.17 5.59-3.25 5.32L60 34.8l2.23.53.94-1.14 2.14 2.44 1.63 7.33-.17 4.71h-2.06l-.77-6.63-1.45 2.01-3.17-.7-2.57-2.18-2.91 1.05.17 4.71-2.31.61-3.42 2.62-4.11-.53-1.63-.96-2.57.44.86 1.05-2.06 1.22-1.62-.79-3.09 1.4-4.7-2.36-1.8-4.18-1.54.17-1.8-1.48-.09-1.14-5.73-.6-.95 3.13-3.6-1.65-1.79-3.06H8.22l-.43 4.89-2.23.7-1.1 4.45-.86-.79L0 40.74l4.28-2.09-.68-4.1-.69-4.19 1.88-2.7L4.2 26l2.57-2.8 1.03.18zm56.92 10.3l3.94 5.93 1.29-.52-1.63-2.45-3.6-3.83v.87zM24.5 21.64v-1.75l3-2.18 2.56-1.3h-3l-2.65 1.56-1.63 1.49v2.18h1.72zM90.13 41h4.73v-5.18h2.63c3.98 0 6.65-2.35 6.65-6.1 0-3.72-2.6-6.17-6.48-6.17h-7.53V41zm4.73-8.86v-4.81h1.67c1.67 0 2.66.89 2.66 2.39 0 1.49-1 2.42-2.66 2.42h-1.67zM111.97 41.24c4.26 0 6.78-2.73 6.78-6.75s-2.52-6.75-6.78-6.75-6.78 2.73-6.78 6.75 2.52 6.75 6.78 6.75zm.03-3.48c-1.26 0-2-1.25-2-3.3 0-2.06.74-3.31 2-3.31 1.2 0 1.95 1.25 1.95 3.3 0 2.06-.75 3.31-1.95 3.31zM126.97 41.24c3.88 0 6.25-2.23 6.3-5.7h-4.36c-.1 1.38-.84 2.12-1.87 2.12-1.24 0-2.05-1.06-2.05-3.2 0-2.15.81-3.21 2.05-3.21 1.04 0 1.74.74 1.87 2.11h4.37c-.03-3.4-2.46-5.62-6.31-5.62-4.26 0-6.78 2.73-6.78 6.75s2.52 6.75 6.78 6.75zM141.52 41.24c3.88 0 6.26-2.23 6.31-5.7h-4.36c-.1 1.38-.85 2.12-1.88 2.12-1.23 0-2.04-1.06-2.04-3.2 0-2.15.8-3.21 2.04-3.21 1.04 0 1.75.74 1.88 2.11h4.36c-.03-3.4-2.45-5.62-6.3-5.62-4.27 0-6.8 2.73-6.8 6.75s2.53 6.75 6.8 6.75zM154.2 35v-7.09h-4.43V41h4.43l3.65-7.12V41h4.43V27.91h-4.43L154.2 35zM172.21 41h4.36V27.91h-6.13c-3.78 0-6.16 1.9-6.14 4.57-.01 1.49.88 2.73 2.45 3.46L164.17 41h4.33l2.2-4.33h1.51V41zm0-7.16h-1.67c-1.25 0-1.83-.61-1.8-1.2-.03-.54.51-1.22 1.7-1.22h1.77v2.42z" fill="#fff"/></svg>